NotoSerifTamil-ExtraCondensedBold.ufo
<glyph name="numbersign" format="2">
  <advance width="456"/>
  <unicode hex="0023"/>
  <outline>
    <contour>
      <point x="49" y="0" type="line"/>
      <point x="117" y="0" type="line"/>
      <point x="156" y="202" type="line"/>
      <point x="239" y="202" type="line"/>
      <point x="202" y="0" type="line"/>
      <point x="270" y="0" type="line"/>
      <point x="308" y="202" type="line"/>
      <point x="413" y="202" type="line"/>
      <point x="413" y="268" type="line"/>
      <point x="321" y="268" type="line"/>
      <point x="356" y="451" type="line"/>
      <point x="445" y="451" type="line"/>
      <point x="445" y="518" type="line"/>
      <point x="368" y="518" type="line"/>
      <point x="405" y="714" type="line"/>
      <point x="337" y="714" type="line"/>
      <point x="299" y="518" type="line"/>
      <point x="216" y="518" type="line"/>
      <point x="252" y="714" type="line"/>
      <point x="183" y="714" type="line"/>
      <point x="147" y="518" type="line"/>
      <point x="43" y="518" type="line"/>
      <point x="43" y="451" type="line"/>
      <point x="134" y="451" type="line"/>
      <point x="99" y="268" type="line"/>
      <point x="11" y="268" type="line"/>
      <point x="11" y="202" type="line"/>
      <point x="87" y="202" type="line"/>
    </contour>
    <contour>
      <point x="168" y="268" type="line"/>
      <point x="204" y="451" type="line"/>
      <point x="288" y="451" type="line"/>
      <point x="253" y="268" type="line"/>
    </contour>
  </outline>
</glyph>
<glyph name="parenleft" format="2">
  <advance width="331"/>
  <unicode hex="0028"/>
  <outline>
    <contour>
      <point x="306" y="-135" type="curve"/>
      <point x="306" y="-77" type="line"/>
      <point x="206" y="5"/>
      <point x="183" y="158"/>
      <point x="183" y="317" type="curve" smooth="yes"/>
      <point x="183" y="476"/>
      <point x="206" y="628"/>
      <point x="306" y="711" type="curve"/>
      <point x="306" y="768" type="line"/>
      <point x="120" y="685"/>
      <point x="46" y="541"/>
      <point x="46" y="317" type="curve" smooth="yes"/>
      <point x="46" y="93"/>
      <point x="120" y="-51"/>
    </contour>
  </outline>
</glyph>
<glyph name="parenright" format="2">
  <advance width="331"/>
  <unicode hex="0029"/>
  <outline>
    <contour>
      <point x="25" y="-135" type="line"/>
      <point x="212" y="-51"/>
      <point x="285" y="93"/>
      <point x="285" y="317" type="curve" smooth="yes"/>
      <point x="285" y="541"/>
      <point x="212" y="685"/>
      <point x="25" y="768" type="curve"/>
      <point x="25" y="711" type="line"/>
      <point x="125" y="628"/>
      <point x="148" y="476"/>
      <point x="148" y="317" type="curve" smooth="yes"/>
      <point x="148" y="158"/>
      <point x="125" y="5"/>
      <point x="25" y="-77" type="curve"/>
    </contour>
  </outline>
</glyph>
<glyph name="five" format="2">
  <advance width="456"/>
  <unicode hex="0035"/>
  <outline>
    <contour>
      <point x="200" y="-10" type="curve" smooth="yes"/>
      <point x="295" y="-10"/>
      <point x="414" y="58"/>
      <point x="414" y="219" type="curve" smooth="yes"/>
      <point x="414" y="361"/>
      <point x="331" y="433"/>
      <point x="201" y="433" type="curve" smooth="yes"/>
      <point x="174" y="433"/>
      <point x="132" y="425"/>
      <point x="113" y="416" type="curve"/>
      <point x="129" y="614" type="line"/>
      <point x="297" y="614" type="line" smooth="yes"/>
      <point x="323" y="614"/>
      <point x="326" y="601"/>
      <point x="334" y="570" type="curve" smooth="yes"/>
      <point x="341" y="542" type="line"/>
      <point x="390" y="542" type="line"/>
      <point x="387" y="713" type="line"/>
      <point x="84" y="713" type="line"/>
      <point x="55" y="367" type="line"/>
      <point x="85" y="351" type="line"/>
      <point x="111" y="360"/>
      <point x="140" y="372"/>
      <point x="177" y="372" type="curve" smooth="yes"/>
      <point x="245" y="372"/>
      <point x="285" y="321"/>
      <point x="285" y="219" type="curve" smooth="yes"/>
      <point x="285" y="92"/>
      <point x="239" y="52"/>
      <point x="186" y="52" type="curve" smooth="yes"/>
      <point x="120" y="52"/>
      <point x="98" y="116"/>
      <point x="98" y="175" type="curve"/>
      <point x="59" y="175"/>
      <point x="31" y="150"/>
      <point x="31" y="108" type="curve" smooth="yes"/>
      <point x="31" y="51"/>
      <point x="77" y="-10"/>
    </contour>
  </outline>
</glyph>
<glyph name="nine" format="2">
  <advance width="456"/>
  <unicode hex="0039"/>
  <outline>
    <contour>
      <point x="185" y="-11" type="curve"/>
      <point x="353" y="-11"/>
      <point x="421" y="156"/>
      <point x="421" y="388" type="curve"/>
      <point x="421" y="630"/>
      <point x="333" y="724"/>
      <point x="214" y="724" type="curve" smooth="yes"/>
      <point x="96" y="724"/>
      <point x="27" y="626"/>
      <point x="27" y="485" type="curve" smooth="yes"/>
      <point x="27" y="352"/>
      <point x="93" y="279"/>
      <point x="186" y="279" type="curve" smooth="yes"/>
      <point x="243" y="279"/>
      <point x="279" y="307"/>
      <point x="303" y="340" type="curve"/>
      <point x="297" y="148"/>
      <point x="262" y="50"/>
      <point x="192" y="50" type="curve" smooth="yes"/>
      <point x="134" y="50"/>
      <point x="112" y="97"/>
      <point x="96" y="152" type="curve"/>
      <point x="63" y="144"/>
      <point x="50" y="117"/>
      <point x="50" y="89" type="curve" smooth="yes"/>
      <point x="50" y="37"/>
      <point x="87" y="-11"/>
    </contour>
    <contour>
      <point x="225" y="341" type="curve" smooth="yes"/>
      <point x="174" y="341"/>
      <point x="148" y="395"/>
      <point x="148" y="488" type="curve" smooth="yes"/>
      <point x="148" y="602"/>
      <point x="174" y="663"/>
      <point x="221" y="663" type="curve" smooth="yes"/>
      <point x="272" y="663"/>
      <point x="302" y="591"/>
      <point x="303" y="399" type="curve"/>
      <point x="289" y="370"/>
      <point x="256" y="341"/>
    </contour>
  </outline>
</glyph>
<glyph name="semicolon" format="2">
  <advance width="246"/>
  <unicode hex="003B"/>
  <outline>
    <contour>
      <point x="44" y="-154" type="line"/>
      <point x="149" y="-121"/>
      <point x="188" y="-48"/>
      <point x="188" y="33" type="curve" smooth="yes"/>
      <point x="188" y="99"/>
      <point x="164" y="139"/>
      <point x="116" y="139" type="curve" smooth="yes"/>
      <point x="84" y="139"/>
      <point x="57" y="116"/>
      <point x="57" y="76" type="curve" smooth="yes"/>
      <point x="57" y="5"/>
      <point x="114" y="11"/>
      <point x="114" y="-25" type="curve" smooth="yes"/>
      <point x="114" y="-62"/>
      <point x="90" y="-87"/>
      <point x="44" y="-107" type="curve"/>
    </contour>
    <contour>
      <point x="122" y="392" type="curve" smooth="yes"/>
      <point x="159" y="392"/>
      <point x="190" y="410"/>
      <point x="190" y="465" type="curve" smooth="yes"/>
      <point x="190" y="521"/>
      <point x="159" y="538"/>
      <point x="122" y="538" type="curve" smooth="yes"/>
      <point x="84" y="538"/>
      <point x="55" y="521"/>
      <point x="55" y="465" type="curve" smooth="yes"/>
      <point x="55" y="410"/>
      <point x="84" y="392"/>
    </contour>
  </outline>
</glyph>
<glyph name="backslash" format="2">
  <advance width="235"/>
  <unicode hex="005C"/>
  <outline>
    <contour>
      <point x="175" y="-121" type="line"/>
      <point x="235" y="-121" type="line"/>
      <point x="60" y="760" type="line"/>
      <point x="0" y="760" type="line"/>
    </contour>
  </outline>
</glyph>
<glyph name="bracketright" format="2">
  <advance width="343"/>
  <unicode hex="005D"/>
  <outline>
    <contour>
      <point x="30" y="-128" type="line"/>
      <point x="262" y="-128" type="line"/>
      <point x="262" y="760" type="line"/>
      <point x="30" y="760" type="line"/>
      <point x="30" y="711" type="line"/>
      <point x="65" y="711" type="line" smooth="yes"/>
      <point x="102" y="711"/>
      <point x="132" y="702"/>
      <point x="132" y="639" type="curve" smooth="yes"/>
      <point x="132" y="-7" type="line" smooth="yes"/>
      <point x="132" y="-70"/>
      <point x="102" y="-79"/>
      <point x="65" y="-79" type="curve" smooth="yes"/>
      <point x="30" y="-79" type="line"/>
    </contour>
  </outline>
</glyph>
<glyph name="asciicircum" format="2">
  <advance width="425"/>
  <unicode hex="005E"/>
  <outline>
    <contour>
      <point x="22" y="264" type="line"/>
      <point x="86" y="264" type="line"/>
      <point x="211" y="610" type="line"/>
      <point x="338" y="264" type="line"/>
      <point x="402" y="264" type="line"/>
      <point x="229" y="714" type="line"/>
      <point x="194" y="714" type="line"/>
    </contour>
  </outline>
</glyph>
<glyph name="asciitilde" format="2">
  <advance width="425"/>
  <unicode hex="007E"/>
  <outline>
    <contour>
      <point x="19" y="264" type="curve"/>
      <point x="83" y="264" type="line"/>
      <point x="86" y="347"/>
      <point x="101" y="382"/>
      <point x="131" y="382" type="curve" smooth="yes"/>
      <point x="150" y="382"/>
      <point x="163" y="367"/>
      <point x="196" y="329" type="curve" smooth="yes"/>
      <point x="244" y="273"/>
      <point x="269" y="264"/>
      <point x="299" y="264" type="curve" smooth="yes"/>
      <point x="381" y="264"/>
      <point x="406" y="353"/>
      <point x="408" y="449" type="curve"/>
      <point x="343" y="449" type="line"/>
      <point x="341" y="365"/>
      <point x="327" y="332"/>
      <point x="297" y="332" type="curve" smooth="yes"/>
      <point x="276" y="332"/>
      <point x="265" y="349"/>
      <point x="235" y="382" type="curve" smooth="yes"/>
      <point x="191" y="429"/>
      <point x="165" y="449"/>
      <point x="128" y="449" type="curve" smooth="yes"/>
      <point x="46" y="449"/>
      <point x="21" y="361"/>
    </contour>
  </outline>
</glyph>
<glyph name="divide" format="2">
  <advance width="425"/>
  <unicode hex="00F7"/>
  <outline>
    <contour>
      <point x="38" y="324" type="line"/>
      <point x="387" y="324" type="line"/>
      <point x="387" y="391" type="line"/>
      <point x="38" y="391" type="line"/>
    </contour>
    <contour>
      <point x="213" y="109" type="curve" smooth="yes"/>
      <point x="239" y="109"/>
      <point x="261" y="125"/>
      <point x="261" y="168" type="curve" smooth="yes"/>
      <point x="261" y="212"/>
      <point x="239" y="227"/>
      <point x="213" y="227" type="curve" smooth="yes"/>
      <point x="185" y="227"/>
      <point x="164" y="212"/>
      <point x="164" y="168" type="curve" smooth="yes"/>
      <point x="164" y="125"/>
      <point x="185" y="109"/>
    </contour>
    <contour>
      <point x="213" y="488" type="curve" smooth="yes"/>
      <point x="239" y="488"/>
      <point x="261" y="504"/>
      <point x="261" y="547" type="curve" smooth="yes"/>
      <point x="261" y="591"/>
      <point x="239" y="606"/>
      <point x="213" y="606" type="curve" smooth="yes"/>
      <point x="185" y="606"/>
      <point x="164" y="591"/>
      <point x="164" y="547" type="curve" smooth="yes"/>
      <point x="164" y="504"/>
      <point x="185" y="488"/>
    </contour>
  </outline>
</glyph>
<glyph name="udatta-deva" format="2">
  <unicode hex="0951"/>
  <anchor x="0" y="565" name="_vedic"/>
  <outline>
    <contour>
      <point x="-30" y="937" type="line"/>
      <point x="30" y="937" type="line"/>
      <point x="30" y="1138" type="line"/>
      <point x="-30" y="1138" type="line"/>
    </contour>
  </outline>
</glyph>
<glyph name="dbldanda-deva" format="2">
  <advance width="507"/>
  <unicode hex="0965"/>
  <outline>
    <contour>
      <point x="298" y="0" type="line"/>
      <point x="441" y="0" type="line"/>
      <point x="441" y="565" type="line"/>
      <point x="298" y="565" type="line"/>
    </contour>
    <contour>
      <point x="66" y="0" type="line"/>
      <point x="209" y="0" type="line"/>
      <point x="209" y="565" type="line"/>
      <point x="66" y="565" type="line"/>
    </contour>
  </outline>
</glyph>
<glyph name="anusvara-tamil" format="2">
  <unicode hex="0B82"/>
  <note>
uni0B82
</note>
  <anchor x="0" y="565" name="_top"/>
  <outline>
    <contour>
      <point x="0" y="628" type="curve" smooth="yes"/>
      <point x="71" y="628"/>
      <point x="127" y="680"/>
      <point x="127" y="751" type="curve" smooth="yes"/>
      <point x="127" y="822"/>
      <point x="71" y="873"/>
      <point x="0" y="873" type="curve" smooth="yes"/>
      <point x="-71" y="873"/>
      <point x="-127" y="822"/>
      <point x="-127" y="751" type="curve" smooth="yes"/>
      <point x="-127" y="680"/>
      <point x="-71" y="628"/>
    </contour>
    <contour>
      <point x="0" y="698" type="curve" smooth="yes"/>
      <point x="-29" y="698"/>
      <point x="-53" y="721"/>
      <point x="-53" y="751" type="curve" smooth="yes"/>
      <point x="-53" y="781"/>
      <point x="-29" y="804"/>
      <point x="0" y="804" type="curve" smooth="yes"/>
      <point x="29" y="804"/>
      <point x="53" y="781"/>
      <point x="53" y="751" type="curve" smooth="yes"/>
      <point x="53" y="721"/>
      <point x="29" y="698"/>
    </contour>
  </outline>
</glyph>
<glyph name="visarga-tamil" format="2">
  <advance width="716"/>
  <unicode hex="0B83"/>
  <note>
uni0B83
</note>
  <outline>
    <contour>
      <point x="528" y="-2" type="curve" smooth="yes"/>
      <point x="614" y="-2"/>
      <point x="672" y="67"/>
      <point x="672" y="186" type="curve" smooth="yes"/>
      <point x="672" y="304"/>
      <point x="614" y="373"/>
      <point x="530" y="373" type="curve" smooth="yes"/>
      <point x="442" y="373"/>
      <point x="392" y="298"/>
      <point x="392" y="183" type="curve" smooth="yes"/>
      <point x="392" y="71"/>
      <point x="439" y="-2"/>
    </contour>
    <contour>
      <point x="182" y="-2" type="curve" smooth="yes"/>
      <point x="268" y="-2"/>
      <point x="325" y="67"/>
      <point x="325" y="186" type="curve" smooth="yes"/>
      <point x="325" y="304"/>
      <point x="267" y="373"/>
      <point x="183" y="373" type="curve" smooth="yes"/>
      <point x="95" y="373"/>
      <point x="45" y="298"/>
      <point x="45" y="183" type="curve" smooth="yes"/>
      <point x="45" y="71"/>
      <point x="92" y="-2"/>
    </contour>
    <contour>
      <point x="357" y="426" type="curve" smooth="yes"/>
      <point x="443" y="426"/>
      <point x="501" y="495"/>
      <point x="501" y="614" type="curve" smooth="yes"/>
      <point x="501" y="732"/>
      <point x="443" y="801"/>
      <point x="359" y="801" type="curve" smooth="yes"/>
      <point x="271" y="801"/>
      <point x="221" y="726"/>
      <point x="221" y="612" type="curve" smooth="yes"/>
      <point x="221" y="500"/>
      <point x="268" y="426"/>
    </contour>
    <contour>
      <point x="162" y="63" type="curve" smooth="yes"/>
      <point x="122" y="63"/>
      <point x="104" y="109"/>
      <point x="104" y="186" type="curve" smooth="yes"/>
      <point x="104" y="261"/>
      <point x="123" y="308"/>
      <point x="164" y="308" type="curve" smooth="yes"/>
      <point x="202" y="308"/>
      <point x="222" y="268"/>
      <point x="222" y="186" type="curve" smooth="yes"/>
      <point x="222" y="102"/>
      <point x="202" y="63"/>
    </contour>
    <contour>
      <point x="338" y="491" type="curve" smooth="yes"/>
      <point x="298" y="491"/>
      <point x="280" y="538"/>
      <point x="280" y="614" type="curve" smooth="yes"/>
      <point x="280" y="689"/>
      <point x="298" y="736"/>
      <point x="339" y="736" type="curve" smooth="yes"/>
      <point x="378" y="736"/>
      <point x="398" y="696"/>
      <point x="398" y="614" type="curve" smooth="yes"/>
      <point x="398" y="530"/>
      <point x="377" y="491"/>
    </contour>
    <contour>
      <point x="509" y="63" type="curve" smooth="yes"/>
      <point x="469" y="63"/>
      <point x="450" y="109"/>
      <point x="450" y="186" type="curve" smooth="yes"/>
      <point x="450" y="261"/>
      <point x="469" y="308"/>
      <point x="510" y="308" type="curve" smooth="yes"/>
      <point x="549" y="308"/>
      <point x="569" y="268"/>
      <point x="569" y="186" type="curve" smooth="yes"/>
      <point x="569" y="102"/>
      <point x="548" y="63"/>
    </contour>
  </outline>
</glyph>
<glyph name="a-tamil" format="2">
  <advance width="1090"/>
  <unicode hex="0B85"/>
  <note>
uni0B85
</note>
  <anchor x="536" y="0" name="bottom"/>
  <anchor x="359" y="-140" name="nukta"/>
  <anchor x="539" y="565" name="top"/>
  <anchor x="540" y="565" name="vedic"/>
  <outline>
    <contour>
      <point x="884" y="-203" type="line"/>
      <point x="1027" y="-203" type="line"/>
      <point x="1027" y="565" type="line"/>
      <point x="884" y="565" type="line"/>
      <point x="884" y="164" type="line"/>
      <point x="104" y="164" type="line" smooth="yes"/>
      <point x="57" y="164"/>
      <point x="27" y="133"/>
      <point x="27" y="86" type="curve" smooth="yes"/>
      <point x="27" y="-27"/>
      <point x="166" y="-140"/>
      <point x="359" y="-140" type="curve" smooth="yes"/>
      <point x="609" y="-140"/>
      <point x="793" y="-3"/>
      <point x="793" y="241" type="curve" smooth="yes"/>
      <point x="793" y="449"/>
      <point x="667" y="570"/>
      <point x="501" y="570" type="curve" smooth="yes"/>
      <point x="367" y="570"/>
      <point x="296" y="487"/>
      <point x="296" y="379" type="curve" smooth="yes"/>
      <point x="296" y="291"/>
      <point x="355" y="229"/>
      <point x="434" y="229" type="curve" smooth="yes"/>
      <point x="510" y="229"/>
      <point x="570" y="277"/>
      <point x="570" y="370" type="curve" smooth="yes"/>
      <point x="570" y="449"/>
      <point x="521" y="510"/>
      <point x="464" y="530" type="curve"/>
      <point x="408" y="521" type="line"/>
      <point x="456" y="497"/>
      <point x="484" y="440"/>
      <point x="484" y="384" type="curve" smooth="yes"/>
      <point x="484" y="337"/>
      <point x="463" y="298"/>
      <point x="421" y="298" type="curve" smooth="yes"/>
      <point x="388" y="298"/>
      <point x="359" y="325"/>
      <point x="359" y="383" type="curve" smooth="yes"/>
      <point x="359" y="452"/>
      <point x="400" y="508"/>
      <point x="483" y="508" type="curve" smooth="yes"/>
      <point x="588" y="508"/>
      <point x="658" y="415"/>
      <point x="658" y="251" type="curve" smooth="yes"/>
      <point x="658" y="32"/>
      <point x="518" y="-78"/>
      <point x="339" y="-78" type="curve" smooth="yes"/>
      <point x="198" y="-78"/>
      <point x="97" y="9"/>
      <point x="97" y="75" type="curve" smooth="yes"/>
      <point x="97" y="92"/>
      <point x="106" y="103"/>
      <point x="125" y="103" type="curve" smooth="yes"/>
      <point x="884" y="103" type="line"/>
    </contour>
  </outline>
</glyph>
<glyph name="ta-tamil" format="2">
  <advance width="727"/>
  <unicode hex="0BA4"/>
  <note>
uni0BA4
</note>
  <anchor x="353" y="0" name="bottom"/>
  <anchor x="474" y="565" name="imatra"/>
  <anchor x="413" y="-137" name="nukta"/>
  <anchor x="371" y="565" name="top"/>
  <anchor x="375" y="565" name="vedic"/>
  <outline>
    <contour>
      <point x="166" y="-265" type="curve"/>
      <point x="166" y="-179"/>
      <point x="185" y="-127"/>
      <point x="279" y="-127" type="curve" smooth="yes"/>
      <point x="413" y="-127" type="line" smooth="yes"/>
      <point x="557" y="-127"/>
      <point x="684" y="-65"/>
      <point x="684" y="110" type="curve" smooth="yes"/>
      <point x="684" y="267"/>
      <point x="590" y="329"/>
      <point x="465" y="329" type="curve" smooth="yes"/>
      <point x="445" y="329" type="line"/>
      <point x="445" y="504" type="line"/>
      <point x="571" y="504" type="line"/>
      <point x="571" y="565" type="line"/>
      <point x="135" y="565" type="line"/>
      <point x="135" y="294" type="line"/>
      <point x="200" y="294" type="line"/>
      <point x="200" y="504" type="line"/>
      <point x="299" y="504" type="line"/>
      <point x="299" y="329" type="line"/>
      <point x="189" y="329" type="line" smooth="yes"/>
      <point x="111" y="329"/>
      <point x="43" y="266"/>
      <point x="43" y="170" type="curve" smooth="yes"/>
      <point x="43" y="68"/>
      <point x="105" y="-4"/>
      <point x="231" y="-4" type="curve" smooth="yes"/>
      <point x="364" y="-4"/>
      <point x="445" y="66"/>
      <point x="445" y="202" type="curve" smooth="yes"/>
      <point x="445" y="268" type="line"/>
      <point x="456" y="268" type="line" smooth="yes"/>
      <point x="508" y="268"/>
      <point x="550" y="222"/>
      <point x="550" y="109" type="curve" smooth="yes"/>
      <point x="550" y="-22"/>
      <point x="465" y="-74"/>
      <point x="358" y="-74" type="curve" smooth="yes"/>
      <point x="230" y="-74" type="line" smooth="yes"/>
      <point x="137" y="-74"/>
      <point x="55" y="-92"/>
      <point x="55" y="-178" type="curve" smooth="yes"/>
      <point x="55" y="-238"/>
      <point x="99" y="-265"/>
    </contour>
    <contour>
      <point x="200" y="64" type="curve" smooth="yes"/>
      <point x="147" y="64"/>
      <point x="109" y="101"/>
      <point x="109" y="168" type="curve" smooth="yes"/>
      <point x="109" y="228"/>
      <point x="134" y="268"/>
      <point x="193" y="268" type="curve" smooth="yes"/>
      <point x="299" y="268" type="line"/>
      <point x="299" y="190" type="line" smooth="yes"/>
      <point x="299" y="99"/>
      <point x="258" y="64"/>
    </contour>
  </outline>
</glyph>
<glyph name="pa-tamil" format="2">
  <advance width="739"/>
  <unicode hex="0BAA"/>
  <note>
uni0BAA
</note>
  <anchor x="374" y="0" name="bottom"/>
  <anchor x="668" y="565" name="imatra"/>
  <anchor x="374" y="0" name="nukta"/>
  <anchor x="375" y="565" name="top"/>
  <anchor x="370" y="565" name="vedic"/>
  <outline>
    <contour>
      <point x="64" y="0" type="line"/>
      <point x="676" y="0" type="line"/>
      <point x="676" y="565" type="line"/>
      <point x="533" y="565" type="line"/>
      <point x="533" y="61" type="line"/>
      <point x="208" y="61" type="line"/>
      <point x="208" y="565" type="line"/>
      <point x="64" y="565" type="line"/>
    </contour>
  </outline>
</glyph>
<glyph name="ma-tamil" format="2">
  <advance width="744"/>
  <unicode hex="0BAE"/>
  <note>
uni0BAE
</note>
  <anchor x="367" y="0" name="bottom"/>
  <anchor x="681" y="565" name="imatra"/>
  <anchor x="368" y="0" name="nukta"/>
  <anchor x="375" y="565" name="top"/>
  <anchor x="385" y="565" name="vedic"/>
  <outline>
    <contour>
      <point x="64" y="0" type="line"/>
      <point x="560" y="0" type="line" smooth="yes"/>
      <point x="650" y="0"/>
      <point x="698" y="64"/>
      <point x="698" y="234" type="curve" smooth="yes"/>
      <point x="698" y="444"/>
      <point x="622" y="570"/>
      <point x="487" y="570" type="curve" smooth="yes"/>
      <point x="382" y="570"/>
      <point x="346" y="502"/>
      <point x="346" y="399" type="curve" smooth="yes"/>
      <point x="346" y="61" type="line"/>
      <point x="208" y="61" type="line"/>
      <point x="208" y="565" type="line"/>
      <point x="64" y="565" type="line"/>
    </contour>
    <contour>
      <point x="490" y="61" type="line"/>
      <point x="490" y="403" type="line" smooth="yes"/>
      <point x="490" y="467"/>
      <point x="501" y="492"/>
      <point x="531" y="492" type="curve" smooth="yes"/>
      <point x="578" y="492"/>
      <point x="632" y="407"/>
      <point x="632" y="234" type="curve" smooth="yes"/>
      <point x="632" y="107"/>
      <point x="609" y="61"/>
      <point x="555" y="61" type="curve" smooth="yes"/>
    </contour>
  </outline>
</glyph>
<glyph name="ra-tamil" format="2">
  <advance width="529"/>
  <unicode hex="0BB0"/>
  <note>
uni0BB0
</note>
  <anchor x="257" y="0" name="bottom"/>
  <anchor x="452" y="565" name="imatra"/>
  <anchor x="257" y="-226" name="nukta"/>
  <anchor x="274" y="565" name="top"/>
  <anchor x="285" y="565" name="vedic"/>
  <outline>
    <contour>
      <point x="176" y="-220" type="line"/>
      <point x="407" y="42" type="line"/>
      <point x="407" y="505" type="line"/>
      <point x="511" y="505" type="line"/>
      <point x="511" y="565" type="line"/>
      <point x="64" y="565" type="line"/>
      <point x="64" y="0" type="line"/>
      <point x="130" y="0" type="line"/>
      <point x="130" y="505" type="line"/>
      <point x="263" y="505" type="line"/>
      <point x="263" y="-16" type="line"/>
      <point x="127" y="-179" type="line"/>
    </contour>
  </outline>
</glyph>
<glyph name="rra-tamil" format="2">
  <advance width="763"/>
  <unicode hex="0BB1"/>
  <note>
uni0BB1
</note>
  <anchor x="390" y="0" name="bottom"/>
  <anchor x="439" y="-152" name="nukta"/>
  <anchor x="393" y="565" name="top"/>
  <anchor x="400" y="565" name="vedic"/>
  <outline>
    <contour>
      <point x="184" y="-267" type="curve"/>
      <point x="184" y="-186"/>
      <point x="200" y="-130"/>
      <point x="297" y="-130" type="curve" smooth="yes"/>
      <point x="409" y="-130" type="line" smooth="yes"/>
      <point x="579" y="-130"/>
      <point x="726" y="-33"/>
      <point x="726" y="244" type="curve" smooth="yes"/>
      <point x="726" y="453"/>
      <point x="640" y="570"/>
      <point x="498" y="570" type="curve" smooth="yes"/>
      <point x="417" y="570"/>
      <point x="362" y="534"/>
      <point x="341" y="478" type="curve"/>
      <point x="322" y="533"/>
      <point x="279" y="570"/>
      <point x="211" y="570" type="curve" smooth="yes"/>
      <point x="134" y="570"/>
      <point x="80" y="518"/>
      <point x="80" y="424" type="curve" smooth="yes"/>
      <point x="80" y="0" type="line"/>
      <point x="145" y="0" type="line"/>
      <point x="145" y="419" type="line" smooth="yes"/>
      <point x="145" y="478"/>
      <point x="165" y="505"/>
      <point x="204" y="505" type="curve" smooth="yes"/>
      <point x="247" y="505"/>
      <point x="265" y="473"/>
      <point x="265" y="415" type="curve" smooth="yes"/>
      <point x="265" y="0" type="line"/>
      <point x="413" y="0" type="line"/>
      <point x="413" y="408" type="line" smooth="yes"/>
      <point x="413" y="472"/>
      <point x="438" y="505"/>
      <point x="482" y="505" type="curve" smooth="yes"/>
      <point x="548" y="505"/>
      <point x="577" y="439"/>
      <point x="577" y="255" type="curve" smooth="yes"/>
      <point x="577" y="9"/>
      <point x="529" y="-75"/>
      <point x="375" y="-75" type="curve" smooth="yes"/>
      <point x="249" y="-75" type="line" smooth="yes"/>
      <point x="155" y="-75"/>
      <point x="73" y="-95"/>
      <point x="73" y="-181" type="curve" smooth="yes"/>
      <point x="73" y="-239"/>
      <point x="118" y="-267"/>
    </contour>
  </outline>
</glyph>
<glyph name="llla-tamil" format="2">
  <advance width="744"/>
  <unicode hex="0BB4"/>
  <note>
uni0BB4
</note>
  <anchor x="373" y="0" name="bottom"/>
  <anchor x="377" y="-309" name="nukta"/>
  <anchor x="400" y="565" name="top"/>
  <anchor x="375" y="565" name="vedic"/>
  <anchor x="681" y="565" name="imatra"/>
  <outline>
    <contour>
      <point x="252" y="-328" type="curve" smooth="yes"/>
      <point x="430" y="-328"/>
      <point x="474" y="-155"/>
      <point x="609" y="-155" type="curve" smooth="yes"/>
      <point x="631" y="-155" type="line"/>
      <point x="631" y="-95" type="line"/>
      <point x="608" y="-95" type="line" smooth="yes"/>
      <point x="539" y="-95"/>
      <point x="490" y="-63"/>
      <point x="490" y="13" type="curve" smooth="yes"/>
      <point x="490" y="109" type="line"/>
      <point x="347" y="109" type="line"/>
      <point x="347" y="16" type="line" smooth="yes"/>
      <point x="347" y="-51"/>
      <point x="412" y="-108"/>
      <point x="488" y="-119" type="curve"/>
      <point x="488" y="-125" type="line"/>
      <point x="355" y="-144"/>
      <point x="325" y="-258"/>
      <point x="224" y="-258" type="curve" smooth="yes"/>
      <point x="179" y="-258"/>
      <point x="144" y="-232"/>
      <point x="144" y="-186" type="curve" smooth="yes"/>
      <point x="144" y="-145"/>
      <point x="167" y="-116"/>
      <point x="208" y="-116" type="curve" smooth="yes"/>
      <point x="236" y="-116"/>
      <point x="259" y="-129"/>
      <point x="282" y="-150" type="curve"/>
      <point x="318" y="-107" type="line"/>
      <point x="283" y="-75"/>
      <point x="250" y="-59"/>
      <point x="204" y="-59" type="curve" smooth="yes"/>
      <point x="130" y="-59"/>
      <point x="82" y="-115"/>
      <point x="82" y="-184" type="curve" smooth="yes"/>
      <point x="82" y="-270"/>
      <point x="149" y="-328"/>
    </contour>
    <component base="ma-tamil"/>
  </outline>
</glyph>
<glyph name="aaMatra-tamil" format="2">
  <advance width="531"/>
  <unicode hex="0BBE"/>
  <note>
uni0BBE
</note>
  <anchor x="275" y="0" name="bottom"/>
  <anchor x="274" y="0" name="nukta"/>
  <anchor x="268" y="565" name="top"/>
  <anchor x="268" y="565" name="vedic"/>
  <outline>
    <contour>
      <point x="64" y="0" type="line"/>
      <point x="130" y="0" type="line"/>
      <point x="130" y="505" type="line"/>
      <point x="265" y="505" type="line"/>
      <point x="265" y="0" type="line"/>
      <point x="409" y="0" type="line"/>
      <point x="409" y="505" type="line"/>
      <point x="513" y="505" type="line"/>
      <point x="513" y="565" type="line"/>
      <point x="64" y="565" type="line"/>
    </contour>
  </outline>
</glyph>
<glyph name="eeMatra-tamil" format="2">
  <advance width="525"/>
  <unicode hex="0BC7"/>
  <note>
uni0BC7
</note>
  <outline>
    <contour>
      <point x="320" y="-5" type="curve" smooth="yes"/>
      <point x="419" y="-5"/>
      <point x="487" y="56"/>
      <point x="487" y="165" type="curve" smooth="yes"/>
      <point x="487" y="258"/>
      <point x="435" y="326"/>
      <point x="349" y="326" type="curve" smooth="yes"/>
      <point x="248" y="326"/>
      <point x="197" y="225"/>
      <point x="193" y="106" type="curve"/>
      <point x="235" y="80" type="line"/>
      <point x="238" y="171"/>
      <point x="261" y="238"/>
      <point x="304" y="238" type="curve" smooth="yes"/>
      <point x="339" y="238"/>
      <point x="358" y="200"/>
      <point x="358" y="154" type="curve" smooth="yes"/>
      <point x="358" y="96"/>
      <point x="335" y="63"/>
      <point x="292" y="63" type="curve" smooth="yes"/>
      <point x="217" y="63"/>
      <point x="114" y="211"/>
      <point x="114" y="413" type="curve" smooth="yes"/>
      <point x="114" y="614"/>
      <point x="217" y="763"/>
      <point x="292" y="763" type="curve" smooth="yes"/>
      <point x="335" y="763"/>
      <point x="358" y="730"/>
      <point x="358" y="671" type="curve" smooth="yes"/>
      <point x="358" y="626"/>
      <point x="339" y="588"/>
      <point x="304" y="588" type="curve" smooth="yes"/>
      <point x="261" y="588"/>
      <point x="238" y="654"/>
      <point x="235" y="747" type="curve"/>
      <point x="193" y="720" type="line"/>
      <point x="197" y="601"/>
      <point x="248" y="500"/>
      <point x="349" y="500" type="curve" smooth="yes"/>
      <point x="435" y="500"/>
      <point x="487" y="567"/>
      <point x="487" y="661" type="curve" smooth="yes"/>
      <point x="487" y="770"/>
      <point x="419" y="831"/>
      <point x="320" y="831" type="curve" smooth="yes"/>
      <point x="172" y="831"/>
      <point x="50" y="648"/>
      <point x="50" y="414" type="curve" smooth="yes"/>
      <point x="50" y="179"/>
      <point x="172" y="-5"/>
    </contour>
  </outline>
</glyph>
<glyph name="aiMatra-tamil" format="2">
  <advance width="1084"/>
  <unicode hex="0BC8"/>
  <note>
uni0BC8
</note>
  <outline>
    <contour>
      <point x="861" y="-11" type="line"/>
      <point x="960" y="45"/>
      <point x="1041" y="128"/>
      <point x="1041" y="276" type="curve" smooth="yes"/>
      <point x="1041" y="458"/>
      <point x="920" y="570"/>
      <point x="745" y="570" type="curve" smooth="yes"/>
      <point x="547" y="570"/>
      <point x="446" y="383"/>
      <point x="446" y="189" type="curve" smooth="yes"/>
      <point x="446" y="68"/>
      <point x="492" y="-4"/>
      <point x="593" y="-4" type="curve" smooth="yes"/>
      <point x="693" y="-4"/>
      <point x="756" y="67"/>
      <point x="756" y="190" type="curve" smooth="yes"/>
      <point x="756" y="410"/>
      <point x="605" y="570"/>
      <point x="365" y="570" type="curve" smooth="yes"/>
      <point x="173" y="570"/>
      <point x="43" y="447"/>
      <point x="43" y="257" type="curve" smooth="yes"/>
      <point x="43" y="96"/>
      <point x="116" y="-5"/>
      <point x="231" y="-5" type="curve" smooth="yes"/>
      <point x="330" y="-5"/>
      <point x="396" y="60"/>
      <point x="396" y="164" type="curve" smooth="yes"/>
      <point x="396" y="256"/>
      <point x="345" y="323"/>
      <point x="258" y="323" type="curve" smooth="yes"/>
      <point x="160" y="323"/>
      <point x="108" y="228"/>
      <point x="105" y="117" type="curve"/>
      <point x="142" y="91" type="line"/>
      <point x="144" y="174"/>
      <point x="169" y="235"/>
      <point x="212" y="235" type="curve" smooth="yes"/>
      <point x="248" y="235"/>
      <point x="266" y="198"/>
      <point x="266" y="153" type="curve" smooth="yes"/>
      <point x="266" y="99"/>
      <point x="248" y="63"/>
      <point x="205" y="63" type="curve" smooth="yes"/>
      <point x="150" y="63"/>
      <point x="107" y="133"/>
      <point x="107" y="255" type="curve" smooth="yes"/>
      <point x="107" y="417"/>
      <point x="222" y="507"/>
      <point x="350" y="507" type="curve" smooth="yes"/>
      <point x="525" y="507"/>
      <point x="627" y="375"/>
      <point x="627" y="182" type="curve" smooth="yes"/>
      <point x="627" y="103"/>
      <point x="607" y="64"/>
      <point x="568" y="64" type="curve" smooth="yes"/>
      <point x="533" y="64"/>
      <point x="510" y="103"/>
      <point x="510" y="184" type="curve" smooth="yes"/>
      <point x="510" y="353"/>
      <point x="580" y="507"/>
      <point x="729" y="507" type="curve" smooth="yes"/>
      <point x="840" y="507"/>
      <point x="913" y="427"/>
      <point x="913" y="269" type="curve" smooth="yes"/>
      <point x="913" y="165"/>
      <point x="887" y="98"/>
      <point x="831" y="32" type="curve"/>
    </contour>
  </outline>
</glyph>
<glyph name="day-tamil" format="2">
  <advance width="716"/>
  <unicode hex="0BF3"/>
  <note>
uni0BF3
</note>
  <outline>
    <contour>
      <point x="210" y="-5" type="curve" smooth="yes"/>
      <point x="300" y="-5"/>
      <point x="358" y="59"/>
      <point x="358" y="163" type="curve" smooth="yes"/>
      <point x="358" y="259"/>
      <point x="309" y="323"/>
      <point x="229" y="323" type="curve" smooth="yes"/>
      <point x="135" y="323"/>
      <point x="98" y="237"/>
      <point x="92" y="131" type="curve"/>
      <point x="122" y="104" type="line"/>
      <point x="126" y="188"/>
      <point x="147" y="235"/>
      <point x="185" y="235" type="curve" smooth="yes"/>
      <point x="218" y="235"/>
      <point x="233" y="197"/>
      <point x="233" y="151" type="curve" smooth="yes"/>
      <point x="233" y="97"/>
      <point x="217" y="64"/>
      <point x="182" y="64" type="curve" smooth="yes"/>
      <point x="137" y="64"/>
      <point x="107" y="133"/>
      <point x="107" y="255" type="curve" smooth="yes"/>
      <point x="107" y="413"/>
      <point x="176" y="504"/>
      <point x="280" y="504" type="curve" smooth="yes"/>
      <point x="394" y="504"/>
      <point x="454" y="408"/>
      <point x="454" y="264" type="curve" smooth="yes"/>
      <point x="454" y="168"/>
      <point x="434" y="102"/>
      <point x="408" y="44" type="curve"/>
      <point x="427" y="0" type="line"/>
      <point x="702" y="0" type="line"/>
      <point x="702" y="61" type="line"/>
      <point x="502" y="61" type="line"/>
      <point x="550" y="121"/>
      <point x="587" y="192"/>
      <point x="587" y="286" type="curve" smooth="yes"/>
      <point x="587" y="461"/>
      <point x="478" y="570"/>
      <point x="311" y="570" type="curve" smooth="yes"/>
      <point x="134" y="570"/>
      <point x="43" y="442"/>
      <point x="43" y="257" type="curve" smooth="yes"/>
      <point x="43" y="96"/>
      <point x="97" y="-5"/>
    </contour>
  </outline>
</glyph>
<glyph name="asabove-tamil" format="2">
  <advance width="1579"/>
  <unicode hex="0BF8"/>
  <note>
uni0BF8
</note>
  <outline>
    <contour>
      <point x="608" y="-4" type="curve" smooth="yes"/>
      <point x="708" y="-4"/>
      <point x="779" y="69"/>
      <point x="779" y="235" type="curve" smooth="yes"/>
      <point x="779" y="463"/>
      <point x="630" y="659"/>
      <point x="377" y="659" type="curve" smooth="yes"/>
      <point x="155" y="659"/>
      <point x="43" y="465"/>
      <point x="43" y="267" type="curve" smooth="yes"/>
      <point x="43" y="99"/>
      <point x="116" y="-5"/>
      <point x="231" y="-5" type="curve" smooth="yes"/>
      <point x="330" y="-5"/>
      <point x="396" y="60"/>
      <point x="396" y="164" type="curve" smooth="yes"/>
      <point x="396" y="256"/>
      <point x="345" y="323"/>
      <point x="258" y="323" type="curve" smooth="yes"/>
      <point x="160" y="323"/>
      <point x="108" y="228"/>
      <point x="105" y="117" type="curve"/>
      <point x="142" y="91" type="line"/>
      <point x="144" y="174"/>
      <point x="169" y="235"/>
      <point x="212" y="235" type="curve" smooth="yes"/>
      <point x="248" y="235"/>
      <point x="266" y="198"/>
      <point x="266" y="153" type="curve" smooth="yes"/>
      <point x="266" y="99"/>
      <point x="248" y="63"/>
      <point x="205" y="63" type="curve" smooth="yes"/>
      <point x="150" y="63"/>
      <point x="107" y="136"/>
      <point x="107" y="266" type="curve" smooth="yes"/>
      <point x="107" y="437"/>
      <point x="206" y="595"/>
      <point x="364" y="595" type="curve" smooth="yes"/>
      <point x="569" y="595"/>
      <point x="651" y="439"/>
      <point x="651" y="228" type="curve" smooth="yes"/>
      <point x="651" y="106"/>
      <point x="621" y="68"/>
      <point x="583" y="68" type="curve" smooth="yes"/>
      <point x="547" y="68"/>
      <point x="516" y="103"/>
      <point x="516" y="198" type="curve" smooth="yes"/>
      <point x="516" y="357"/>
      <point x="576" y="507"/>
      <point x="726" y="507" type="curve" smooth="yes"/>
      <point x="840" y="507"/>
      <point x="906" y="404"/>
      <point x="906" y="258" type="curve" smooth="yes"/>
      <point x="906" y="165"/>
      <point x="888" y="104"/>
      <point x="858" y="43" type="curve"/>
      <point x="877" y="0" type="line"/>
      <point x="1563" y="0" type="line"/>
      <point x="1563" y="61" type="line"/>
      <point x="901" y="61" type="line"/>
      <point x="941" y="41" type="line"/>
      <point x="993" y="98"/>
      <point x="1034" y="172"/>
      <point x="1034" y="271" type="curve" smooth="yes"/>
      <point x="1034" y="460"/>
      <point x="911" y="570"/>
      <point x="743" y="570" type="curve" smooth="yes"/>
      <point x="540" y="570"/>
      <point x="453" y="393"/>
      <point x="453" y="204" type="curve" smooth="yes"/>
      <point x="453" y="68"/>
      <point x="506" y="-4"/>
    </contour>
    <contour>
      <point x="1307" y="-265" type="line"/>
      <point x="1449" y="-265" type="line"/>
      <point x="1449" y="411" type="line" smooth="yes"/>
      <point x="1449" y="515"/>
      <point x="1391" y="568"/>
      <point x="1300" y="568" type="curve" smooth="yes"/>
      <point x="1170" y="568"/>
      <point x="1110" y="453"/>
      <point x="1110" y="297" type="curve" smooth="yes"/>
      <point x="1110" y="142"/>
      <point x="1171" y="14"/>
      <point x="1300" y="14" type="curve"/>
      <point x="1300" y="60" type="line"/>
      <point x="1213" y="60"/>
      <point x="1174" y="169"/>
      <point x="1174" y="296" type="curve" smooth="yes"/>
      <point x="1174" y="413"/>
      <point x="1211" y="483"/>
      <point x="1258" y="483" type="curve" smooth="yes"/>
      <point x="1290" y="483"/>
      <point x="1307" y="461"/>
      <point x="1307" y="417" type="curve" smooth="yes"/>
    </contour>
  </outline>
</glyph>
<glyph name="quoteleft" format="2">
  <advance width="231"/>
  <unicode hex="2018"/>
  <outline>
    <contour>
      <point x="122" y="416" type="curve" smooth="yes"/>
      <point x="156" y="416"/>
      <point x="181" y="439"/>
      <point x="181" y="482" type="curve" smooth="yes"/>
      <point x="181" y="556"/>
      <point x="122" y="545"/>
      <point x="122" y="583" type="curve"/>
      <point x="122" y="622"/>
      <point x="146" y="645"/>
      <point x="193" y="666" type="curve"/>
      <point x="193" y="715" type="line"/>
      <point x="86" y="680"/>
      <point x="45" y="604"/>
      <point x="45" y="519" type="curve" smooth="yes"/>
      <point x="45" y="454"/>
      <point x="74" y="416"/>
    </contour>
  </outline>
</glyph>
<glyph name="quoteright" format="2">
  <advance width="231"/>
  <unicode hex="2019"/>
  <outline>
    <contour>
      <point x="38" y="416" type="line"/>
      <point x="145" y="451"/>
      <point x="185" y="527"/>
      <point x="185" y="612" type="curve" smooth="yes"/>
      <point x="185" y="676"/>
      <point x="156" y="714"/>
      <point x="109" y="714" type="curve" smooth="yes"/>
      <point x="76" y="714"/>
      <point x="50" y="691"/>
      <point x="50" y="649" type="curve" smooth="yes"/>
      <point x="50" y="574"/>
      <point x="109" y="585"/>
      <point x="109" y="547" type="curve"/>
      <point x="109" y="508"/>
      <point x="85" y="485"/>
      <point x="38" y="464" type="curve"/>
    </contour>
  </outline>
</glyph>
<glyph name="quotedblleft" format="2">
  <advance width="402"/>
  <unicode hex="201C"/>
  <outline>
    <contour>
      <point x="288" y="416" type="curve" smooth="yes"/>
      <point x="321" y="416"/>
      <point x="347" y="439"/>
      <point x="347" y="482" type="curve" smooth="yes"/>
      <point x="347" y="556"/>
      <point x="287" y="545"/>
      <point x="287" y="583" type="curve"/>
      <point x="287" y="622"/>
      <point x="312" y="645"/>
      <point x="359" y="666" type="curve"/>
      <point x="359" y="715" type="line"/>
      <point x="251" y="680"/>
      <point x="211" y="604"/>
      <point x="211" y="519" type="curve" smooth="yes"/>
      <point x="211" y="454"/>
      <point x="240" y="416"/>
    </contour>
    <contour>
      <point x="129" y="416" type="curve" smooth="yes"/>
      <point x="163" y="416"/>
      <point x="188" y="439"/>
      <point x="188" y="482" type="curve" smooth="yes"/>
      <point x="188" y="556"/>
      <point x="129" y="545"/>
      <point x="129" y="583" type="curve"/>
      <point x="129" y="622"/>
      <point x="153" y="645"/>
      <point x="200" y="666" type="curve"/>
      <point x="200" y="715" type="line"/>
      <point x="93" y="680"/>
      <point x="52" y="604"/>
      <point x="52" y="519" type="curve" smooth="yes"/>
      <point x="52" y="454"/>
      <point x="81" y="416"/>
    </contour>
  </outline>
</glyph>
<glyph name="iiMatra-tamil.alt02" format="2">
  <note>
uni0BC0
</note>
  <anchor x="-285" y="906" name="top"/>
  <outline>
    <contour>
      <point x="-355" y="509" type="curve"/>
      <point x="-333" y="547" type="line"/>
      <point x="-381" y="577"/>
      <point x="-414" y="627"/>
      <point x="-414" y="699" type="curve" smooth="yes"/>
      <point x="-414" y="783"/>
      <point x="-375" y="843"/>
      <point x="-299" y="843" type="curve" smooth="yes"/>
      <point x="-245" y="843"/>
      <point x="-216" y="805"/>
      <point x="-216" y="748" type="curve" smooth="yes"/>
      <point x="-216" y="706"/>
      <point x="-235" y="680"/>
      <point x="-265" y="680" type="curve" smooth="yes"/>
      <point x="-318" y="680"/>
      <point x="-330" y="775"/>
      <point x="-294" y="866" type="curve"/>
      <point x="-339" y="870" type="line"/>
      <point x="-396" y="746"/>
      <point x="-363" y="607"/>
      <point x="-236" y="607" type="curve" smooth="yes"/>
      <point x="-161" y="607"/>
      <point x="-106" y="662"/>
      <point x="-106" y="742" type="curve" smooth="yes"/>
      <point x="-106" y="841"/>
      <point x="-174" y="906"/>
      <point x="-285" y="906" type="curve" smooth="yes"/>
      <point x="-406" y="906"/>
      <point x="-477" y="814"/>
      <point x="-477" y="704" type="curve" smooth="yes"/>
      <point x="-477" y="613"/>
      <point x="-437" y="554"/>
    </contour>
  </outline>
</glyph>
<glyph name="uMatra-tamil.alt01" format="2">
  <advance width="433"/>
  <note>
uni0BC1
</note>
  <anchor x="161" y="565" name="top"/>
  <outline>
    <contour>
      <point x="234" y="222" type="curve" smooth="yes"/>
      <point x="331" y="222"/>
      <point x="403" y="276"/>
      <point x="403" y="391" type="curve" smooth="yes"/>
      <point x="403" y="570" type="line"/>
      <point x="-130" y="570" type="line"/>
      <point x="-130" y="509" type="line"/>
      <point x="258" y="509" type="line"/>
      <point x="258" y="376" type="line" smooth="yes"/>
      <point x="258" y="323"/>
      <point x="237" y="295"/>
      <point x="199" y="295" type="curve" smooth="yes"/>
      <point x="161" y="295"/>
      <point x="145" y="323"/>
      <point x="145" y="388" type="curve" smooth="yes"/>
      <point x="145" y="529" type="line"/>
      <point x="81" y="529" type="line"/>
      <point x="81" y="396" type="line" smooth="yes"/>
      <point x="81" y="279"/>
      <point x="136" y="222"/>
    </contour>
  </outline>
</glyph>
